<svg width="1284" height="2778" viewBox="0 0 1284 2778" xmlns="http://www.w3.org/2000/svg">
  <!-- 전체 배경 -->
  <rect width="1284" height="2778" fill="#2196F3"/>

  <!-- 달리는 사람 아이콘 (중앙, 크게) -->
  <g transform="translate(642, 1200)">
    <g transform="scale(18, 18) translate(-12, -12)">
      <path d="M13.49 5.48c1.1 0 2-.9 2-2s-.9-2-2-2-2 .9-2 2 .9 2 2 2zm-3.6 13.9l1-4.4 2.1 2v6h2v-7.5l-2.1-2 .6-3c1.3 1.5 3.3 2.5 5.5 2.5v-2c-1.9 0-3.5-1-4.3-2.4l-1-1.6c-.4-.6-1-1-1.7-1-.3 0-.5.1-.8.1l-5.2 2.2v4.7h2v-3.4l1.8-.7-1.6 8.1-4.9-1-.4 2 7 1.4z"
            fill="white"/>
    </g>
  </g>

  <!-- 앱 이름 -->
  <text x="642" y="1550" font-family="Arial, sans-serif" font-size="72" font-weight="bold" text-anchor="middle" fill="white">
    한국 러닝 대회 일정
  </text>

  <!-- 부제 -->
  <text x="642" y="1630" font-family="Arial, sans-serif" font-size="36" text-anchor="middle" fill="rgba(255,255,255,0.8)">
    전국 마라톤 일정을 한눈에
  </text>
</svg>
